<?xml version="1.0" encoding="UTF-8" standalone="no"?>
<!DOCTYPE svg PUBLIC "-//W3C//DTD SVG 1.1//EN"
 "http://www.w3.org/Graphics/SVG/1.1/DTD/svg11.dtd">
<!-- Generated by graphviz version 2.43.0 (0)
 -->
<!-- Title: pastafarianism Pages: 1 -->
<svg width="669pt" height="260pt"
 viewBox="0.00 0.00 668.52 260.00" xmlns="http://www.w3.org/2000/svg" xmlns:xlink="http://www.w3.org/1999/xlink">
<g id="graph0" class="graph" transform="scale(1 1) rotate(0) translate(4 256)">
<title>pastafarianism</title>
<polygon fill="white" stroke="transparent" points="-4,4 -4,-256 664.52,-256 664.52,4 -4,4"/>
<!-- Demo Dot Graphs fine_detail -->
<g id="node1" class="node">
<title>Demo Dot Graphs fine_detail</title>
<polygon fill="cyan" stroke="black" points="382.84,-226.54 382.84,-241.46 327.79,-252 249.94,-252 194.89,-241.46 194.89,-226.54 249.94,-216 327.79,-216 382.84,-226.54"/>
<text text-anchor="middle" x="288.87" y="-231.8" font-family="Times,serif" font-size="9.00">Demo Dot Graphs fine_detail</text>
</g>
<!-- BlackBox 1 -->
<g id="node2" class="node">
<title>BlackBox 1</title>
<polygon fill="#333333" stroke="black" points="231.87,-180 151.87,-180 151.87,-144 231.87,-144 231.87,-180"/>
<text text-anchor="middle" x="191.87" y="-159.8" font-family="Times,serif" font-size="9.00" fill="white">Ⓜ BlackBox 1</text>
</g>
<!-- Demo Dot Graphs fine_detail&#45;&gt;BlackBox 1 -->
<g id="edge1" class="edge">
<title>Demo Dot Graphs fine_detail&#45;&gt;BlackBox 1</title>
<path fill="none" stroke="black" d="M264.89,-215.7C252.56,-206.8 237.35,-195.82 224.01,-186.2"/>
<polygon fill="black" stroke="black" points="225.73,-183.12 215.57,-180.1 221.63,-188.79 225.73,-183.12"/>
</g>
<!-- Blackbox 2 -->
<g id="node10" class="node">
<title>Blackbox 2</title>
<polygon fill="#333333" stroke="black" points="480.87,-180 400.87,-180 400.87,-144 480.87,-144 480.87,-180"/>
<text text-anchor="middle" x="440.87" y="-159.8" font-family="Times,serif" font-size="9.00" fill="white">Ⓜ Blackbox 2</text>
</g>
<!-- Demo Dot Graphs fine_detail&#45;&gt;Blackbox 2 -->
<g id="edge9" class="edge">
<title>Demo Dot Graphs fine_detail&#45;&gt;Blackbox 2</title>
<path fill="none" stroke="black" d="M326.05,-215.88C346.74,-206.35 372.67,-194.41 394.65,-184.28"/>
<polygon fill="black" stroke="black" points="396.19,-187.43 403.8,-180.07 393.26,-181.07 396.19,-187.43"/>
</g>
<!-- Worker -->
<g id="node3" class="node">
<title>Worker</title>
<ellipse fill="gray" stroke="black" cx="28.87" cy="-90" rx="28.74" ry="18"/>
<text text-anchor="middle" x="28.87" y="-87.8" font-family="Times,serif" font-size="9.00">Worker</text>
</g>
<!-- BlackBox 1&#45;&gt;Worker -->
<g id="edge2" class="edge">
<title>BlackBox 1&#45;&gt;Worker</title>
<path fill="none" stroke="black" d="M151.81,-144.25C127.25,-133.92 95.18,-120.33 66.87,-108 65.03,-107.2 63.14,-106.37 61.24,-105.53"/>
<polygon fill="black" stroke="black" points="62.3,-102.18 51.74,-101.32 59.46,-108.58 62.3,-102.18"/>
</g>
<!-- Worker* -->
<g id="node4" class="node">
<title>Worker*</title>
<ellipse fill="gray" stroke="black" cx="107.87" cy="-90" rx="31.51" ry="18"/>
<text text-anchor="middle" x="107.87" y="-87.8" font-family="Times,serif" font-size="9.00">Worker*</text>
</g>
<!-- BlackBox 1&#45;&gt;Worker* -->
<g id="edge3" class="edge">
<title>BlackBox 1&#45;&gt;Worker*</title>
<path fill="none" stroke="black" d="M171.1,-143.7C159.58,-134.09 145.15,-122.07 133,-111.94"/>
<polygon fill="black" stroke="black" points="134.93,-108.99 125,-105.28 130.44,-114.37 134.93,-108.99"/>
</g>
<!-- Worker** -->
<g id="node5" class="node">
<title>Worker**</title>
<ellipse fill="gray" stroke="black" cx="191.87" cy="-90" rx="34.13" ry="18"/>
<text text-anchor="middle" x="191.87" y="-87.8" font-family="Times,serif" font-size="9.00">Worker**</text>
</g>
<!-- BlackBox 1&#45;&gt;Worker** -->
<g id="edge4" class="edge">
<title>BlackBox 1&#45;&gt;Worker**</title>
<path fill="none" stroke="black" d="M191.87,-143.7C191.87,-135.98 191.87,-126.71 191.87,-118.11"/>
<polygon fill="black" stroke="black" points="195.37,-118.1 191.87,-108.1 188.37,-118.1 195.37,-118.1"/>
</g>
<!-- Blackbox 3 -->
<g id="node6" class="node">
<title>Blackbox 3</title>
<polygon fill="#333333" stroke="black" points="323.87,-108 243.87,-108 243.87,-72 323.87,-72 323.87,-108"/>
<text text-anchor="middle" x="283.87" y="-87.8" font-family="Times,serif" font-size="9.00" fill="white">Ⓜ Blackbox 3</text>
</g>
<!-- BlackBox 1&#45;&gt;Blackbox 3 -->
<g id="edge5" class="edge">
<title>BlackBox 1&#45;&gt;Blackbox 3</title>
<path fill="none" stroke="black" d="M214.61,-143.7C226.31,-134.8 240.73,-123.82 253.38,-114.2"/>
<polygon fill="black" stroke="black" points="255.55,-116.94 261.39,-108.1 251.31,-111.37 255.55,-116.94"/>
</g>
<!-- Worker*** -->
<g id="node7" class="node">
<title>Worker***</title>
<ellipse fill="gray" stroke="black" cx="189.87" cy="-18" rx="36.9" ry="18"/>
<text text-anchor="middle" x="189.87" y="-15.8" font-family="Times,serif" font-size="9.00">Worker***</text>
</g>
<!-- Blackbox 3&#45;&gt;Worker*** -->
<g id="edge6" class="edge">
<title>Blackbox 3&#45;&gt;Worker***</title>
<path fill="none" stroke="black" d="M260.63,-71.7C247.57,-61.97 231.2,-49.78 217.49,-39.57"/>
<polygon fill="black" stroke="black" points="219.46,-36.67 209.35,-33.51 215.28,-42.29 219.46,-36.67"/>
</g>
<!-- Worker**** -->
<g id="node8" class="node">
<title>Worker****</title>
<ellipse fill="gray" stroke="black" cx="283.87" cy="-18" rx="39.02" ry="18"/>
<text text-anchor="middle" x="283.87" y="-15.8" font-family="Times,serif" font-size="9.00">Worker****</text>
</g>
<!-- Blackbox 3&#45;&gt;Worker**** -->
<g id="edge7" class="edge">
<title>Blackbox 3&#45;&gt;Worker****</title>
<path fill="none" stroke="black" d="M283.87,-71.7C283.87,-63.98 283.87,-54.71 283.87,-46.11"/>
<polygon fill="black" stroke="black" points="287.37,-46.1 283.87,-36.1 280.37,-46.1 287.37,-46.1"/>
</g>
<!-- Worker***** -->
<g id="node9" class="node">
<title>Worker*****</title>
<ellipse fill="gray" stroke="black" cx="382.87" cy="-18" rx="42.29" ry="18"/>
<text text-anchor="middle" x="382.87" y="-15.8" font-family="Times,serif" font-size="9.00">Worker*****</text>
</g>
<!-- Blackbox 3&#45;&gt;Worker***** -->
<g id="edge8" class="edge">
<title>Blackbox 3&#45;&gt;Worker*****</title>
<path fill="none" stroke="black" d="M308.09,-71.88C321.87,-62.13 339.22,-49.86 353.74,-39.59"/>
<polygon fill="black" stroke="black" points="355.77,-42.44 361.92,-33.81 351.73,-36.73 355.77,-42.44"/>
</g>
<!-- Worker****** -->
<g id="node11" class="node">
<title>Worker******</title>
<ellipse fill="gray" stroke="black" cx="385.87" cy="-90" rx="44.41" ry="18"/>
<text text-anchor="middle" x="385.87" y="-87.8" font-family="Times,serif" font-size="9.00">Worker******</text>
</g>
<!-- Blackbox 2&#45;&gt;Worker****** -->
<g id="edge10" class="edge">
<title>Blackbox 2&#45;&gt;Worker******</title>
<path fill="none" stroke="black" d="M427.27,-143.7C420.65,-135.27 412.56,-124.97 405.3,-115.73"/>
<polygon fill="black" stroke="black" points="407.86,-113.32 398.93,-107.62 402.35,-117.65 407.86,-113.32"/>
</g>
<!-- Worker******* -->
<g id="node12" class="node">
<title>Worker*******</title>
<ellipse fill="gray" stroke="black" cx="495.87" cy="-90" rx="47.19" ry="18"/>
<text text-anchor="middle" x="495.87" y="-87.8" font-family="Times,serif" font-size="9.00">Worker*******</text>
</g>
<!-- Blackbox 2&#45;&gt;Worker******* -->
<g id="edge11" class="edge">
<title>Blackbox 2&#45;&gt;Worker*******</title>
<path fill="none" stroke="black" d="M454.46,-143.7C461.09,-135.27 469.17,-124.97 476.44,-115.73"/>
<polygon fill="black" stroke="black" points="479.38,-117.65 482.81,-107.62 473.88,-113.32 479.38,-117.65"/>
</g>
<!-- Worker******** -->
<g id="node13" class="node">
<title>Worker********</title>
<ellipse fill="gray" stroke="black" cx="610.87" cy="-90" rx="49.8" ry="18"/>
<text text-anchor="middle" x="610.87" y="-87.8" font-family="Times,serif" font-size="9.00">Worker********</text>
</g>
<!-- Blackbox 2&#45;&gt;Worker******** -->
<g id="edge12" class="edge">
<title>Blackbox 2&#45;&gt;Worker********</title>
<path fill="none" stroke="black" d="M481.16,-144.41C507.91,-133.39 542.94,-118.97 569.85,-107.89"/>
<polygon fill="black" stroke="black" points="571.45,-111.02 579.36,-103.97 568.78,-104.54 571.45,-111.02"/>
</g>
</g>
</svg>
